<?xml version="1.0" encoding="UTF-8"?>
<svg width="36px" height="36px" viewBox="0 0 36 36" version="1.1" xmlns="http://www.w3.org/2000/svg" xmlns:xlink="http://www.w3.org/1999/xlink">
    <!-- Generator: Sketch 54.1 (76490) - https://sketchapp.com -->
    <title>edit (1)</title>
    <desc>Created with Sketch.</desc>
    <g id="Profile" stroke="none" stroke-width="1" fill="none" fill-rule="evenodd">
        <g id="2.-Profile-Edit-/-Amend" transform="translate(-211.000000, -122.000000)" fill-rule="nonzero">
            <g id="edit-(1)" transform="translate(211.000000, 122.000000)">
                <path d="M17.5495309,0 C7.8573685,0 0.000116999993,7.8578365 0.000116999993,17.5496479 C0.000116999993,27.2414593 7.8573685,35.0999978 17.5495309,35.0999978 C27.2416933,35.0999978 35.0998808,27.2419273 35.0998808,17.5496479 C35.0998808,7.8573685 27.2416933,0 17.5495309,0 Z" id="Path" fill="#3EB561"></path>
                <path d="M25.8923324,12.6295642 L24.2254335,14.2964631 L20.8323167,10.9035803 L19.5450828,12.1908142 L22.9381996,15.583931 L14.6157561,23.9056725 L11.2228733,20.5131407 L9.93563937,21.8003746 L13.3285222,25.1932574 L12.4992262,26.0225534 L12.4834312,26.0067584 C12.3914692,26.1581563 12.2419432,26.2686043 12.0643372,26.3080333 L8.90030644,27.0135433 C8.85292144,27.0241903 8.80471744,27.0293383 8.75709845,27.0293383 C8.58440646,27.0293383 8.41662847,26.9613613 8.29225748,26.8366393 C8.13266949,26.6776363 8.06621349,26.4479653 8.11535349,26.2278883 L8.82051244,23.0647935 C8.86029244,22.8873046 8.97097443,22.7374276 9.12213842,22.6456996 L9.10610942,22.6296706 L22.4990986,9.23609642 C22.6954246,9.04012143 23.0143665,9.04012143 23.2106925,9.23668142 L25.8925664,11.9179702 C26.0888924,12.1142962 26.0888924,12.4332382 25.8923324,12.6295642 Z" id="Path" fill="#FFFFFF"></path>
            </g>
        </g>
    </g>
</svg>